<svg height="496pt" viewBox="0 0 496 496" width="496pt" xmlns="http://www.w3.org/2000/svg" xmlns:xlink="http://www.w3.org/1999/xlink"><linearGradient id="a" gradientTransform="matrix(8 0 0 -8 -8 504)" gradientUnits="userSpaceOnUse" x1="32" x2="32" y1="1" y2="63"><stop offset="0" stop-color="#9f2fff"/><stop offset="1" stop-color="#0bb1d3"/></linearGradient><path d="m112 144h16v48h-96v-104h40v16h-24v72h64zm-32-11.3125-10.34375-10.34375-11.3125 11.3125 21.65625 21.65625 61.65625-61.65625-11.3125-11.3125zm288 291.3125c0 22.054688-17.945312 40-40 40s-40-17.945312-40-40 17.945312-40 40-40 40 17.945312 40 40zm-16 0c0-13.230469-10.769531-24-24-24s-24 10.769531-24 24 10.769531 24 24 24 24-10.769531 24-24zm144-348.222656c0 15.558594-12.664062 28.222656-28.222656 28.222656h-1.777344c-1.847656 0-3.710938-.183594-5.535156-.550781l-38.050782-7.609375-15.605468 68.28125 25.625 50.847656-40.167969 176.75c4.902344 9.722656 7.734375 20.664062 7.734375 32.28125 0 39.703125-32.304688 72-72 72-37.433594 0-68.257812-28.71875-71.65625-65.28125l-196.097656-36.3125c-11.734375-2.175781-20.246094-12.40625-20.246094-24.34375 0-2.023438.246094-4.039062.734375-6l4.058594-16.222656c2.535156-10.113282 10.703125-17.550782 20.664062-19.382813l22.703125-104.457031h-88.160156v-171.3125l52.6875-52.6875h123.3125v156.640625l173.734375 34.75 36.175781-160.765625 87.402344 17.480469c13.144531 2.628906 22.6875 14.261719 22.6875 27.671875zm-293.929688 142.078125 24.265626 4.855469 10.726562-37.535157-24.261719-4.855469zm40 8 24.265626 4.855469 10.726562-37.535157-24.261719-4.855469zm-214.757812-177.855469h20.6875v-20.6875zm-11.3125 160h144v-192h-96v48h-48zm88.535156 16-22.984375 105.753906 199.402344 39.878906c9.085937-7.871093 20.117187-13.554687 32.3125-16.097656l32.964844-146.527344-53.429688-10.6875-15.136719 52.976563-95.734374-19.152344 15.132812-52.976562-21.0625-4.207031v51.039062zm-41.375 154.671875 193.542969 35.839844c1.511719-11.390625 5.632813-21.96875 11.839844-31.046875l-196.34375-39.273438c-5.175781-1.039062-10.574219 2.328125-11.878907 7.519532l-4.054687 16.21875c-.175781.703124-.265625 1.414062-.265625 2.132812 0 4.21875 3.007812 7.839844 7.160156 8.609375zm320.839844 45.328125c0-30.871094-25.121094-56-56-56s-56 25.128906-56 56 25.121094 56 56 56 56-25.128906 56-56zm-4.152344-49.832031 12.617188-55.519531-20.066406-4.007813-10.488282 45.878906c6.691406 3.59375 12.722656 8.222657 17.9375 13.648438zm-3.878906-75.128907 20.039062 4.007813 13.152344-57.855469-19.96875-3.992187zm25.246094-110.464843-8.460938 37.019531 19.949219 3.992188 2.855469-12.554688zm5.503906-95.871094-17.582031-3.519531-59.152344 262.921875c5.832031.160156 11.472656 1.015625 16.878906 2.488281zm73.28125-16.925781c0-5.808594-4.136719-10.839844-9.832031-11.984375l-72.078125-14.417969-5.441406 24.191406 70.960937 14.195313c.789063.160156 1.589844.238281 2.398437.238281h1.777344c6.726563 0 12.214844-5.488281 12.214844-12.222656zm0 0" fill="url(#a)"/></svg>